<?xml version="1.0" encoding="utf-8"?>
<!-- Generator: Adobe Illustrator 19.2.1, SVG Export Plug-In . SVG Version: 6.00 Build 0)  -->
<svg version="1.1" id="Layer_1" xmlns:sketch="http://www.bohemiancoding.com/sketch/ns"
	 xmlns="http://www.w3.org/2000/svg" xmlns:xlink="http://www.w3.org/1999/xlink" x="0px" y="0px" viewBox="0 0 125 21"
	 style="enable-background:new 0 0 125 21;" xml:space="preserve">
<style type="text/css">
	.st0{fill:#321DD3;}
	.st1{enable-background:new    ;}
</style>
<title>iPad Pro Landscape Copy 10</title>
<desc>Created with Sketch.</desc>
<g id="Page-1" sketch:type="MSPage">
	<g id="iPad-Pro-Landscape-Copy-10" sketch:type="MSArtboardGroup">
		<path id="Shape-Copy" sketch:type="MSShapeGroup" class="st0" d="M23.1,14.3C23.1,6.7,18.1,1,11,1C5.1,1,1,5.2,1,11.2
			C1,16.1,4.9,20,9.8,20c4,0,7.2-3.2,7.2-7.2c0-3.3-2.6-5.9-5.9-5.9c-2.7,0-4.9,2.2-4.9,4.9c0,2.2,1.8,4.1,4.1,4.1
			c1.9,0,3.4-1.5,3.4-3.4c0-1.6-0.9-2.6-2.4-2.6C9.8,9.8,9,11,9,12.4h1.6c0-0.6,0.3-1,0.6-1c0.7,0,0.9,0.3,0.9,1.1
			c0,1-0.8,1.8-1.8,1.8c-1.4,0-2.5-1.1-2.5-2.5c0-1.8,1.5-3.3,3.3-3.3c2.4,0,4.3,1.9,4.3,4.3c0,3.1-2.5,5.6-5.6,5.6
			c-4,0-7.2-3.2-7.2-7.2c0-5.2,3.4-8.7,8.4-8.7c6.2,0,10.6,5,10.6,11.8H23.1L23.1,14.3z"/>
		<g class="st1">
			<path class="st0" d="M32.5,12.2c0.2,1.2,1.1,2,2.3,2c0.9,0,1.7-0.4,2-1.1l2.2,0.6c-0.9,1.7-2.4,2.7-4.3,2.7c-2.8,0-4.8-2-4.8-4.7
				c0-2.8,1.9-4.7,4.6-4.7c2.8,0,4.8,2,4.8,4.8l0,0.5H32.5z M36.9,10.8c-0.2-1.2-1-1.9-2.2-1.9c-1.2,0-1.9,0.7-2.2,1.9H36.9z"/>
			<path class="st0" d="M44.7,9.8V9.6c0-0.5-0.5-0.9-1.1-0.9c-0.6,0-1,0.3-1,0.8c0,0.2,0.1,0.5,0.2,0.6c0.3,0.2,0.3,0.2,1.5,0.6
				c2,0.6,2.8,1.4,2.8,2.8c0,1.7-1.4,2.8-3.4,2.8c-2.1,0-3.4-1.1-3.5-2.9h2.3c0.1,0.8,0.5,1.1,1.2,1.1c0.6,0,1-0.3,1-0.8
				c0-0.5-0.3-0.8-1.6-1.2c-1.9-0.6-2.8-1.4-2.8-2.8c0-1.7,1.3-2.8,3.4-2.8c2,0,3.2,1.1,3.3,2.8H44.7z"/>
			<path class="st0" d="M51.1,16h-2.4V3.3h2.4v7.3l2.5-3.4h2.8l-3,4.2l3,4.6h-2.8l-2.5-3.6V16z"/>
			<path class="st0" d="M63.9,7.2h2.4V16h-2.4v-1.2c-0.8,1-1.8,1.5-3.1,1.5c-2.5,0-4.2-1.9-4.2-4.6c0-2.8,1.9-4.8,4.4-4.8
				c1.2,0,2,0.4,2.9,1.4V7.2z M59.2,11.7c0,1.5,1,2.7,2.3,2.7c1.3,0,2.4-1.3,2.4-2.8c0-1.6-1-2.7-2.4-2.7
				C60.2,8.9,59.2,10.1,59.2,11.7z"/>
			<path class="st0" d="M70.9,7.2v1.3c0.2-0.6,0.4-0.9,0.8-1.2c0.4-0.3,0.9-0.4,1.4-0.4c0.1,0,0.2,0,0.3,0v2.5c-0.2,0-0.4,0-0.5,0
				c-0.7,0-1.3,0.3-1.6,0.8c-0.3,0.4-0.4,0.8-0.4,1.6V16h-2.4V7.2H70.9z"/>
			<path class="st0" d="M81.2,7.2h2.4v8.2c0,1.8-0.3,2.8-1.2,3.7c-0.9,0.9-2.1,1.3-3.6,1.3c-1.7,0-3.1-0.6-4.3-1.7l1.5-1.5
				c0.8,0.8,1.6,1.2,2.7,1.2c1.6,0,2.5-1,2.5-2.6v-0.9c-0.8,1-1.8,1.5-3.1,1.5c-2.4,0-4.2-2-4.2-4.6c0-2.8,1.8-4.8,4.4-4.8
				c1.2,0,2.1,0.4,2.8,1.4V7.2z M76.5,11.6c0,1.5,1,2.6,2.4,2.6c0.7,0,1.4-0.3,1.8-0.8c0.3-0.3,0.5-0.9,0.5-1.6
				c0-0.9-0.2-1.6-0.6-2.1c-0.4-0.4-1-0.7-1.7-0.7C77.5,9,76.5,10.1,76.5,11.6z"/>
			<path class="st0" d="M87.7,12.2c0.2,1.2,1.1,2,2.3,2c0.9,0,1.7-0.4,2-1.1l2.2,0.6c-0.9,1.7-2.4,2.7-4.3,2.7c-2.8,0-4.8-2-4.8-4.7
				c0-2.8,1.9-4.7,4.6-4.7c2.8,0,4.8,2,4.8,4.8l0,0.5H87.7z M92.1,10.8c-0.2-1.2-1-1.9-2.2-1.9c-1.2,0-1.9,0.7-2.2,1.9H92.1z"/>
			<path class="st0" d="M102.8,7.2h2.4V16h-2.4v-1.2c-0.8,1-1.8,1.5-3.1,1.5c-2.5,0-4.2-1.9-4.2-4.6c0-2.8,1.9-4.8,4.4-4.8
				c1.2,0,2,0.4,2.9,1.4V7.2z M98.1,11.7c0,1.5,1,2.7,2.3,2.7c1.3,0,2.4-1.3,2.4-2.8c0-1.6-1-2.7-2.4-2.7
				C99.1,8.9,98.1,10.1,98.1,11.7z"/>
			<path class="st0" d="M115,7.2v5.6c0,1.3-0.3,2-1,2.6c-0.7,0.6-1.7,0.9-2.8,0.9c-1.2,0-2.3-0.3-2.9-1c-0.6-0.6-0.9-1.4-0.9-2.6
				V7.2h2.4v5.4c0,1,0.6,1.7,1.5,1.7c0.9,0,1.4-0.6,1.4-1.5V7.2H115z"/>
			<path class="st0" d="M118.9,16H116l3.1-4.4l-3.2-4.4h3l1.6,2.3l1.6-2.3h2.9l-3.1,4.4l3.1,4.4H122l-1.5-2.4L118.9,16z"/>
		</g>
	</g>
</g>
</svg>
